<svg width="128" height="128" viewBox="0 0 128 128" fill="none" xmlns="http://www.w3.org/2000/svg">
<path d="M59.2 103.9L61.8834 101.169L57.7146 97L61.8834 92.8312L59.2 90.1L52.3 97L59.2 103.9ZM68.4 103.9L75.3 97L68.4 90.1L65.7167 92.8312L69.8855 97L65.7167 101.169L68.4 103.9ZM46.55 114.25V79.75H81.05V114.25H46.55ZM50.3834 110.417H77.2167V83.5833H50.3834V110.417Z" fill="white"/>
<path d="M68 8V28.32C66.6792 28.0917 65.3403 27.9846 64 28C62.6598 27.9846 61.3209 28.0917 60 28.32V8M83.6 60C83.4158 60.7458 83.1888 61.4803 82.92 62.2L96 69.68V88H88V74.32L78.96 69.16C77.105 71.3096 74.8086 73.0343 72.227 74.2164C69.6454 75.3986 66.8394 76.0105 64 76.0105C61.1607 76.0105 58.3547 75.3986 55.7731 74.2164C53.1915 73.0343 50.8951 71.3096 49.0401 69.16L40 74.32V88H32V69.68L45.08 62.2C44.8113 61.4803 44.5843 60.7458 44.4 60H37.2L26.2 67.32L21.8 60.68L34.8 52H44.4C44.651 50.796 45.0126 49.6176 45.48 48.48L39.24 44.48L24.96 48L23.04 40L40.76 35.68L50 41.8C53.7386 38.1355 58.765 36.0829 64 36.0829C69.2351 36.0829 74.2615 38.1355 78 41.8L87.08 35.68L104.96 40L103.04 48L88.76 44.44L82.52 48.44C82.9899 49.5905 83.3514 50.7824 83.6 52H93.2L106.2 60.64L101.8 67.28L90.8 60M60 56C60 55.2089 59.7655 54.4355 59.3259 53.7777C58.8864 53.1199 58.2617 52.6072 57.5308 52.3045C56.7999 52.0017 55.9956 51.9225 55.2197 52.0769C54.4438 52.2312 53.731 52.6122 53.1716 53.1716C52.6122 53.731 52.2312 54.4437 52.0769 55.2196C51.9226 55.9956 52.0018 56.7998 52.3045 57.5307C52.6073 58.2616 53.12 58.8864 53.7778 59.3259C54.4356 59.7654 55.2089 60 56 60C57.0609 60 58.0783 59.5786 58.8285 58.8284C59.5786 58.0783 60 57.0609 60 56ZM76 56C76 55.2089 75.7655 54.4355 75.3259 53.7777C74.8864 53.1199 74.2617 52.6072 73.5308 52.3045C72.7999 52.0017 71.9956 51.9225 71.2197 52.0769C70.4438 52.2312 69.731 52.6122 69.1716 53.1716C68.6122 53.731 68.2312 54.4437 68.0769 55.2196C67.9226 55.9956 68.0018 56.7998 68.3045 57.5307C68.6073 58.2616 69.12 58.8864 69.7778 59.3259C70.4356 59.7654 71.2089 60 72 60C73.0609 60 74.0783 59.5786 74.8285 58.8284C75.5786 58.0783 76 57.0609 76 56Z" fill="white"/>
</svg>
